<?xml version="1.0" encoding="iso-8859-1"?>
<!-- Generator: Adobe Illustrator 19.0.0, SVG Export Plug-In . SVG Version: 6.00 Build 0)  -->
<svg version="1.1" id="Layer_1"
	xmlns="http://www.w3.org/2000/svg"
	xmlns:xlink="http://www.w3.org/1999/xlink" x="0px" y="0px" viewBox="0 0 512 512" style="enable-background:new 0 0 512 512;" xml:space="preserve">
	<g transform="translate(1)">
		<polygon style="fill:#9B8DA5;" points="78.448,459.034 255,459.034 255,52.966 78.448,52.966 	"/>
		<polygon style="fill:#9B8DA5;" points="255,459.034 431.552,459.034 431.552,52.966 255,52.966 	"/>
		<polygon style="fill:#9B8DA5;" points="440.379,423.724 458.034,423.724 458.034,88.276 440.379,88.276 	"/>
		<polygon style="fill:#9B8DA5;" points="475.69,388.414 493.345,388.414 493.345,123.586 475.69,123.586 	"/>
		<polygon style="fill:#9B8DA5;" points="51.966,423.724 69.621,423.724 69.621,88.276 51.966,88.276 	"/>
		<polygon style="fill:#9B8DA5;" points="16.655,388.414 34.31,388.414 34.31,123.586 16.655,123.586 	"/>
		<polygon style="fill:#9B8DA5;" points="104.931,459.034 405.069,459.034 405.069,52.966 104.931,52.966 	"/>
		<g>
			<path style="fill:#3F334D;" d="M325.621,467.862H78.448c-5.297,0-8.828-3.531-8.828-8.828V52.966c0-5.297,3.531-8.828,8.828-8.828
			h35.31c5.297,0,8.828,3.531,8.828,8.828s-3.531,8.828-8.828,8.828H87.276v388.414h238.345c5.297,0,8.828,3.531,8.828,8.828
			S330.917,467.862,325.621,467.862z"/>
			<path style="fill:#3F334D;" d="M431.552,467.862h-35.31c-5.297,0-8.828-3.531-8.828-8.828s3.531-8.828,8.828-8.828h26.483V61.793
			H184.379c-5.297,0-8.828-3.531-8.828-8.828s3.531-8.828,8.828-8.828h247.172c5.297,0,8.828,3.531,8.828,8.828v406.069
			C440.379,464.331,436.848,467.862,431.552,467.862z"/>
			<path style="fill:#3F334D;" d="M466.862,432.552h-35.31c-5.297,0-8.828-3.531-8.828-8.828V88.276c0-5.297,3.531-8.828,8.828-8.828
			h35.31c5.297,0,8.828,3.531,8.828,8.828v335.448C475.69,429.021,472.159,432.552,466.862,432.552z M440.379,414.897h17.655V97.103
			h-17.655V414.897z"/>
			<path style="fill:#3F334D;" d="M78.448,432.552h-35.31c-5.297,0-8.828-3.531-8.828-8.828V88.276c0-5.297,3.531-8.828,8.828-8.828
			h35.31c5.297,0,8.828,3.531,8.828,8.828v335.448C87.276,429.021,83.745,432.552,78.448,432.552z M51.966,414.897h17.655V97.103
			H51.966V414.897z"/>
			<path style="fill:#3F334D;" d="M502.172,397.241h-35.31c-5.297,0-8.828-3.531-8.828-8.828V123.586
			c0-5.297,3.531-8.828,8.828-8.828h35.31c5.297,0,8.828,3.531,8.828,8.828v264.828C511,393.71,507.469,397.241,502.172,397.241z
			 M475.69,379.586h17.655V132.414H475.69V379.586z"/>
			<path style="fill:#3F334D;" d="M43.138,397.241H7.828c-5.297,0-8.828-3.531-8.828-8.828V123.586c0-5.297,3.531-8.828,8.828-8.828
			h35.31c5.297,0,8.828,3.531,8.828,8.828v264.828C51.966,393.71,48.434,397.241,43.138,397.241z M16.655,379.586H34.31V132.414
			H16.655V379.586z"/>
			<path style="fill:#3F334D;" d="M157.897,52.966c0,5.297-3.531,8.828-8.828,8.828s-8.828-3.531-8.828-8.828
			s3.531-8.828,8.828-8.828S157.897,47.669,157.897,52.966"/>
			<path style="fill:#3F334D;" d="M369.759,459.034c0,5.297-3.531,8.828-8.828,8.828s-8.828-3.531-8.828-8.828
			s3.531-8.828,8.828-8.828S369.759,453.738,369.759,459.034"/>
		</g>
	</g>
	<g>
	</g>
	<g>
	</g>
	<g>
	</g>
	<g>
	</g>
	<g>
	</g>
	<g>
	</g>
	<g>
	</g>
	<g>
	</g>
	<g>
	</g>
	<g>
	</g>
	<g>
	</g>
	<g>
	</g>
	<g>
	</g>
	<g>
	</g>
	<g>
	</g>
</svg>
